<mxfile host="app.diagrams.net" agent="Mozilla/5.0 (Windows NT 10.0; Win64; x64) AppleWebKit/537.36 (KHTML, like Gecko) Chrome/137.0.0.0 Safari/537.36" version="27.1.6">
  <diagram name="第 1 页" id="YCl0enq3aUIo-OblCDdJ">
    <mxGraphModel dx="1554" dy="815" grid="1" gridSize="10" guides="1" tooltips="1" connect="1" arrows="1" fold="1" page="1" pageScale="1" pageWidth="827" pageHeight="1169" math="0" shadow="0">
      <root>
        <mxCell id="0" />
        <mxCell id="1" parent="0" />
        <mxCell id="muWI-FWQP0e6MkIebZbC-1" value="正式上牌" style="whiteSpace=wrap;strokeWidth=2;verticalAlign=top;" vertex="1" parent="1">
          <mxGeometry x="64" y="2664" width="599" height="645" as="geometry" />
        </mxCell>
        <mxCell id="muWI-FWQP0e6MkIebZbC-2" value="材料审核" style="whiteSpace=wrap;strokeWidth=2;" vertex="1" parent="muWI-FWQP0e6MkIebZbC-1">
          <mxGeometry x="254" y="46" width="124" height="54" as="geometry" />
        </mxCell>
        <mxCell id="muWI-FWQP0e6MkIebZbC-3" value="车辆查验" style="whiteSpace=wrap;strokeWidth=2;" vertex="1" parent="muWI-FWQP0e6MkIebZbC-1">
          <mxGeometry x="254" y="175" width="124" height="54" as="geometry" />
        </mxCell>
        <mxCell id="muWI-FWQP0e6MkIebZbC-4" value="选号方式" style="whiteSpace=wrap;strokeWidth=2;" vertex="1" parent="muWI-FWQP0e6MkIebZbC-1">
          <mxGeometry x="254" y="304" width="124" height="54" as="geometry" />
        </mxCell>
        <mxCell id="muWI-FWQP0e6MkIebZbC-5" value="互联网预选号" style="whiteSpace=wrap;strokeWidth=2;" vertex="1" parent="muWI-FWQP0e6MkIebZbC-1">
          <mxGeometry x="43" y="433" width="156" height="54" as="geometry" />
        </mxCell>
        <mxCell id="muWI-FWQP0e6MkIebZbC-6" value="现场50选1" style="whiteSpace=wrap;strokeWidth=2;" vertex="1" parent="muWI-FWQP0e6MkIebZbC-1">
          <mxGeometry x="249" y="433" width="133" height="54" as="geometry" />
        </mxCell>
        <mxCell id="muWI-FWQP0e6MkIebZbC-7" value="缴费领证" style="whiteSpace=wrap;strokeWidth=2;" vertex="1" parent="muWI-FWQP0e6MkIebZbC-1">
          <mxGeometry x="432" y="433" width="124" height="54" as="geometry" />
        </mxCell>
        <mxCell id="muWI-FWQP0e6MkIebZbC-8" value="邮寄正式号牌" style="whiteSpace=wrap;strokeWidth=2;" vertex="1" parent="muWI-FWQP0e6MkIebZbC-1">
          <mxGeometry x="416" y="562" width="156" height="54" as="geometry" />
        </mxCell>
        <mxCell id="muWI-FWQP0e6MkIebZbC-9" value="" style="curved=1;startArrow=none;endArrow=block;exitX=0.5;exitY=0.99;entryX=0.5;entryY=-0.01;rounded=0;" edge="1" parent="muWI-FWQP0e6MkIebZbC-1" source="muWI-FWQP0e6MkIebZbC-2" target="muWI-FWQP0e6MkIebZbC-3">
          <mxGeometry relative="1" as="geometry">
            <Array as="points" />
          </mxGeometry>
        </mxCell>
        <mxCell id="muWI-FWQP0e6MkIebZbC-10" value="" style="curved=1;startArrow=none;endArrow=block;exitX=0.5;exitY=0.99;entryX=0.5;entryY=-0.01;rounded=0;" edge="1" parent="muWI-FWQP0e6MkIebZbC-1" source="muWI-FWQP0e6MkIebZbC-3" target="muWI-FWQP0e6MkIebZbC-4">
          <mxGeometry relative="1" as="geometry">
            <Array as="points" />
          </mxGeometry>
        </mxCell>
        <mxCell id="muWI-FWQP0e6MkIebZbC-11" value="" style="curved=1;startArrow=none;endArrow=block;exitX=0;exitY=0.87;entryX=0.5;entryY=-0.01;rounded=0;" edge="1" parent="muWI-FWQP0e6MkIebZbC-1" source="muWI-FWQP0e6MkIebZbC-4" target="muWI-FWQP0e6MkIebZbC-5">
          <mxGeometry relative="1" as="geometry">
            <Array as="points">
              <mxPoint x="121" y="395" />
            </Array>
          </mxGeometry>
        </mxCell>
        <mxCell id="muWI-FWQP0e6MkIebZbC-12" value="" style="curved=1;startArrow=none;endArrow=block;exitX=0.5;exitY=0.99;entryX=0.5;entryY=-0.01;rounded=0;" edge="1" parent="muWI-FWQP0e6MkIebZbC-1" source="muWI-FWQP0e6MkIebZbC-4" target="muWI-FWQP0e6MkIebZbC-6">
          <mxGeometry relative="1" as="geometry">
            <Array as="points" />
          </mxGeometry>
        </mxCell>
        <mxCell id="muWI-FWQP0e6MkIebZbC-13" value="" style="curved=1;startArrow=none;endArrow=block;exitX=1;exitY=0.91;entryX=0.5;entryY=-0.01;rounded=0;" edge="1" parent="muWI-FWQP0e6MkIebZbC-1" source="muWI-FWQP0e6MkIebZbC-4" target="muWI-FWQP0e6MkIebZbC-7">
          <mxGeometry relative="1" as="geometry">
            <Array as="points">
              <mxPoint x="494" y="395" />
            </Array>
          </mxGeometry>
        </mxCell>
        <mxCell id="muWI-FWQP0e6MkIebZbC-14" value="" style="curved=1;startArrow=none;endArrow=block;exitX=0.5;exitY=0.99;entryX=0.5;entryY=-0.01;rounded=0;" edge="1" parent="muWI-FWQP0e6MkIebZbC-1" source="muWI-FWQP0e6MkIebZbC-7" target="muWI-FWQP0e6MkIebZbC-8">
          <mxGeometry relative="1" as="geometry">
            <Array as="points" />
          </mxGeometry>
        </mxCell>
        <mxCell id="muWI-FWQP0e6MkIebZbC-15" value="上牌准备" style="whiteSpace=wrap;strokeWidth=2;verticalAlign=top;" vertex="1" parent="1">
          <mxGeometry x="251" y="2227" width="226" height="387" as="geometry" />
        </mxCell>
        <mxCell id="muWI-FWQP0e6MkIebZbC-16" value="免税凭证办理" style="whiteSpace=wrap;strokeWidth=2;" vertex="1" parent="muWI-FWQP0e6MkIebZbC-15">
          <mxGeometry x="43" y="46" width="156" height="54" as="geometry" />
        </mxCell>
        <mxCell id="muWI-FWQP0e6MkIebZbC-17" value="交委额度审核" style="whiteSpace=wrap;strokeWidth=2;" vertex="1" parent="muWI-FWQP0e6MkIebZbC-15">
          <mxGeometry x="43" y="175" width="156" height="54" as="geometry" />
        </mxCell>
        <mxCell id="muWI-FWQP0e6MkIebZbC-18" value="预约车管所" style="whiteSpace=wrap;strokeWidth=2;" vertex="1" parent="muWI-FWQP0e6MkIebZbC-15">
          <mxGeometry x="51" y="304" width="140" height="54" as="geometry" />
        </mxCell>
        <mxCell id="muWI-FWQP0e6MkIebZbC-19" value="" style="curved=1;startArrow=none;endArrow=block;exitX=0.5;exitY=0.99;entryX=0.5;entryY=-0.01;rounded=0;" edge="1" parent="muWI-FWQP0e6MkIebZbC-15" source="muWI-FWQP0e6MkIebZbC-16" target="muWI-FWQP0e6MkIebZbC-17">
          <mxGeometry relative="1" as="geometry">
            <Array as="points" />
          </mxGeometry>
        </mxCell>
        <mxCell id="muWI-FWQP0e6MkIebZbC-20" value="" style="curved=1;startArrow=none;endArrow=block;exitX=0.5;exitY=0.99;entryX=0.5;entryY=-0.01;rounded=0;" edge="1" parent="muWI-FWQP0e6MkIebZbC-15" source="muWI-FWQP0e6MkIebZbC-17" target="muWI-FWQP0e6MkIebZbC-18">
          <mxGeometry relative="1" as="geometry">
            <Array as="points" />
          </mxGeometry>
        </mxCell>
        <mxCell id="muWI-FWQP0e6MkIebZbC-21" value="充电桩申请" style="whiteSpace=wrap;strokeWidth=2;verticalAlign=top;" vertex="1" parent="1">
          <mxGeometry x="237" y="1790" width="253" height="387" as="geometry" />
        </mxCell>
        <mxCell id="muWI-FWQP0e6MkIebZbC-22" value="物业书面同意" style="whiteSpace=wrap;strokeWidth=2;" vertex="1" parent="muWI-FWQP0e6MkIebZbC-21">
          <mxGeometry x="57" y="46" width="156" height="54" as="geometry" />
        </mxCell>
        <mxCell id="muWI-FWQP0e6MkIebZbC-23" value="国网APP提交材料" style="whiteSpace=wrap;strokeWidth=2;" vertex="1" parent="muWI-FWQP0e6MkIebZbC-21">
          <mxGeometry x="43" y="175" width="183" height="54" as="geometry" />
        </mxCell>
        <mxCell id="muWI-FWQP0e6MkIebZbC-24" value="安装专用电表" style="whiteSpace=wrap;strokeWidth=2;" vertex="1" parent="muWI-FWQP0e6MkIebZbC-21">
          <mxGeometry x="57" y="304" width="156" height="54" as="geometry" />
        </mxCell>
        <mxCell id="muWI-FWQP0e6MkIebZbC-25" value="" style="curved=1;startArrow=none;endArrow=block;exitX=0.5;exitY=0.99;entryX=0.5;entryY=-0.01;rounded=0;" edge="1" parent="muWI-FWQP0e6MkIebZbC-21" source="muWI-FWQP0e6MkIebZbC-22" target="muWI-FWQP0e6MkIebZbC-23">
          <mxGeometry relative="1" as="geometry">
            <Array as="points" />
          </mxGeometry>
        </mxCell>
        <mxCell id="muWI-FWQP0e6MkIebZbC-26" value="" style="curved=1;startArrow=none;endArrow=block;exitX=0.5;exitY=0.99;entryX=0.5;entryY=-0.01;rounded=0;" edge="1" parent="muWI-FWQP0e6MkIebZbC-21" source="muWI-FWQP0e6MkIebZbC-23" target="muWI-FWQP0e6MkIebZbC-24">
          <mxGeometry relative="1" as="geometry">
            <Array as="points" />
          </mxGeometry>
        </mxCell>
        <mxCell id="muWI-FWQP0e6MkIebZbC-27" value="保险办理" style="whiteSpace=wrap;strokeWidth=2;verticalAlign=top;" vertex="1" parent="1">
          <mxGeometry x="20" y="1353" width="688" height="387" as="geometry" />
        </mxCell>
        <mxCell id="muWI-FWQP0e6MkIebZbC-28" value="购买交强险" style="whiteSpace=wrap;strokeWidth=2;" vertex="1" parent="muWI-FWQP0e6MkIebZbC-27">
          <mxGeometry x="290" y="46" width="140" height="54" as="geometry" />
        </mxCell>
        <mxCell id="muWI-FWQP0e6MkIebZbC-29" value="商业险配置" style="whiteSpace=wrap;strokeWidth=2;" vertex="1" parent="muWI-FWQP0e6MkIebZbC-27">
          <mxGeometry x="290" y="175" width="140" height="54" as="geometry" />
        </mxCell>
        <mxCell id="muWI-FWQP0e6MkIebZbC-30" value="车损险含三电系统" style="whiteSpace=wrap;strokeWidth=2;" vertex="1" parent="muWI-FWQP0e6MkIebZbC-27">
          <mxGeometry x="43" y="304" width="188" height="54" as="geometry" />
        </mxCell>
        <mxCell id="muWI-FWQP0e6MkIebZbC-31" value="三者险200万+" style="whiteSpace=wrap;strokeWidth=2;" vertex="1" parent="muWI-FWQP0e6MkIebZbC-27">
          <mxGeometry x="281" y="304" width="158" height="54" as="geometry" />
        </mxCell>
        <mxCell id="muWI-FWQP0e6MkIebZbC-32" value="附加外部电网险" style="whiteSpace=wrap;strokeWidth=2;" vertex="1" parent="muWI-FWQP0e6MkIebZbC-27">
          <mxGeometry x="489" y="304" width="172" height="54" as="geometry" />
        </mxCell>
        <mxCell id="muWI-FWQP0e6MkIebZbC-33" value="" style="curved=1;startArrow=none;endArrow=block;exitX=0.5;exitY=0.99;entryX=0.5;entryY=-0.01;rounded=0;" edge="1" parent="muWI-FWQP0e6MkIebZbC-27" source="muWI-FWQP0e6MkIebZbC-28" target="muWI-FWQP0e6MkIebZbC-29">
          <mxGeometry relative="1" as="geometry">
            <Array as="points" />
          </mxGeometry>
        </mxCell>
        <mxCell id="muWI-FWQP0e6MkIebZbC-34" value="" style="curved=1;startArrow=none;endArrow=block;exitX=0;exitY=0.87;entryX=0.5;entryY=-0.01;rounded=0;" edge="1" parent="muWI-FWQP0e6MkIebZbC-27" source="muWI-FWQP0e6MkIebZbC-29" target="muWI-FWQP0e6MkIebZbC-30">
          <mxGeometry relative="1" as="geometry">
            <Array as="points">
              <mxPoint x="137" y="266" />
            </Array>
          </mxGeometry>
        </mxCell>
        <mxCell id="muWI-FWQP0e6MkIebZbC-35" value="" style="curved=1;startArrow=none;endArrow=block;exitX=0.5;exitY=0.99;entryX=0.5;entryY=-0.01;rounded=0;" edge="1" parent="muWI-FWQP0e6MkIebZbC-27" source="muWI-FWQP0e6MkIebZbC-29" target="muWI-FWQP0e6MkIebZbC-31">
          <mxGeometry relative="1" as="geometry">
            <Array as="points" />
          </mxGeometry>
        </mxCell>
        <mxCell id="muWI-FWQP0e6MkIebZbC-36" value="" style="curved=1;startArrow=none;endArrow=block;exitX=1;exitY=0.88;entryX=0.5;entryY=-0.01;rounded=0;" edge="1" parent="muWI-FWQP0e6MkIebZbC-27" source="muWI-FWQP0e6MkIebZbC-29" target="muWI-FWQP0e6MkIebZbC-32">
          <mxGeometry relative="1" as="geometry">
            <Array as="points">
              <mxPoint x="575" y="266" />
            </Array>
          </mxGeometry>
        </mxCell>
        <mxCell id="muWI-FWQP0e6MkIebZbC-37" value="车辆交付" style="whiteSpace=wrap;strokeWidth=2;verticalAlign=top;" vertex="1" parent="1">
          <mxGeometry x="251" y="916" width="226" height="387" as="geometry" />
        </mxCell>
        <mxCell id="muWI-FWQP0e6MkIebZbC-38" value="4S店提供材料" style="whiteSpace=wrap;strokeWidth=2;" vertex="1" parent="muWI-FWQP0e6MkIebZbC-37">
          <mxGeometry x="43" y="46" width="156" height="54" as="geometry" />
        </mxCell>
        <mxCell id="muWI-FWQP0e6MkIebZbC-39" value="发票工商验证" style="whiteSpace=wrap;strokeWidth=2;" vertex="1" parent="muWI-FWQP0e6MkIebZbC-37">
          <mxGeometry x="43" y="175" width="156" height="54" as="geometry" />
        </mxCell>
        <mxCell id="muWI-FWQP0e6MkIebZbC-40" value="办理临时牌照" style="whiteSpace=wrap;strokeWidth=2;" vertex="1" parent="muWI-FWQP0e6MkIebZbC-37">
          <mxGeometry x="43" y="304" width="156" height="54" as="geometry" />
        </mxCell>
        <mxCell id="muWI-FWQP0e6MkIebZbC-41" value="" style="curved=1;startArrow=none;endArrow=block;exitX=0.5;exitY=0.99;entryX=0.5;entryY=-0.01;rounded=0;" edge="1" parent="muWI-FWQP0e6MkIebZbC-37" source="muWI-FWQP0e6MkIebZbC-38" target="muWI-FWQP0e6MkIebZbC-39">
          <mxGeometry relative="1" as="geometry">
            <Array as="points" />
          </mxGeometry>
        </mxCell>
        <mxCell id="muWI-FWQP0e6MkIebZbC-42" value="" style="curved=1;startArrow=none;endArrow=block;exitX=0.5;exitY=0.99;entryX=0.5;entryY=-0.01;rounded=0;" edge="1" parent="muWI-FWQP0e6MkIebZbC-37" source="muWI-FWQP0e6MkIebZbC-39" target="muWI-FWQP0e6MkIebZbC-40">
          <mxGeometry relative="1" as="geometry">
            <Array as="points" />
          </mxGeometry>
        </mxCell>
        <mxCell id="muWI-FWQP0e6MkIebZbC-43" value="购车交易" style="whiteSpace=wrap;strokeWidth=2;verticalAlign=top;" vertex="1" parent="1">
          <mxGeometry x="93" y="479" width="542" height="387" as="geometry" />
        </mxCell>
        <mxCell id="muWI-FWQP0e6MkIebZbC-44" value="谈价与签订合同" style="whiteSpace=wrap;strokeWidth=2;" vertex="1" parent="muWI-FWQP0e6MkIebZbC-43">
          <mxGeometry x="193" y="46" width="172" height="54" as="geometry" />
        </mxCell>
        <mxCell id="muWI-FWQP0e6MkIebZbC-45" value="付款方式选择" style="whiteSpace=wrap;strokeWidth=2;" vertex="1" parent="muWI-FWQP0e6MkIebZbC-43">
          <mxGeometry x="201" y="175" width="156" height="54" as="geometry" />
        </mxCell>
        <mxCell id="muWI-FWQP0e6MkIebZbC-46" value="全款支付" style="whiteSpace=wrap;strokeWidth=2;" vertex="1" parent="muWI-FWQP0e6MkIebZbC-43">
          <mxGeometry x="43" y="304" width="124" height="54" as="geometry" />
        </mxCell>
        <mxCell id="muWI-FWQP0e6MkIebZbC-47" value="定金购车" style="whiteSpace=wrap;strokeWidth=2;" vertex="1" parent="muWI-FWQP0e6MkIebZbC-43">
          <mxGeometry x="217" y="304" width="124" height="54" as="geometry" />
        </mxCell>
        <mxCell id="muWI-FWQP0e6MkIebZbC-48" value="按揭贷款" style="whiteSpace=wrap;strokeWidth=2;" vertex="1" parent="muWI-FWQP0e6MkIebZbC-43">
          <mxGeometry x="391" y="304" width="124" height="54" as="geometry" />
        </mxCell>
        <mxCell id="muWI-FWQP0e6MkIebZbC-49" value="" style="curved=1;startArrow=none;endArrow=block;exitX=0.5;exitY=0.99;entryX=0.5;entryY=-0.01;rounded=0;" edge="1" parent="muWI-FWQP0e6MkIebZbC-43" source="muWI-FWQP0e6MkIebZbC-44" target="muWI-FWQP0e6MkIebZbC-45">
          <mxGeometry relative="1" as="geometry">
            <Array as="points" />
          </mxGeometry>
        </mxCell>
        <mxCell id="muWI-FWQP0e6MkIebZbC-50" value="" style="curved=1;startArrow=none;endArrow=block;exitX=0.03;exitY=0.99;entryX=0.5;entryY=-0.01;rounded=0;" edge="1" parent="muWI-FWQP0e6MkIebZbC-43" source="muWI-FWQP0e6MkIebZbC-45" target="muWI-FWQP0e6MkIebZbC-46">
          <mxGeometry relative="1" as="geometry">
            <Array as="points">
              <mxPoint x="105" y="266" />
            </Array>
          </mxGeometry>
        </mxCell>
        <mxCell id="muWI-FWQP0e6MkIebZbC-51" value="" style="curved=1;startArrow=none;endArrow=block;exitX=0.5;exitY=0.99;entryX=0.5;entryY=-0.01;rounded=0;" edge="1" parent="muWI-FWQP0e6MkIebZbC-43" source="muWI-FWQP0e6MkIebZbC-45" target="muWI-FWQP0e6MkIebZbC-47">
          <mxGeometry relative="1" as="geometry">
            <Array as="points" />
          </mxGeometry>
        </mxCell>
        <mxCell id="muWI-FWQP0e6MkIebZbC-52" value="" style="curved=1;startArrow=none;endArrow=block;exitX=0.97;exitY=0.99;entryX=0.5;entryY=-0.01;rounded=0;" edge="1" parent="muWI-FWQP0e6MkIebZbC-43" source="muWI-FWQP0e6MkIebZbC-45" target="muWI-FWQP0e6MkIebZbC-48">
          <mxGeometry relative="1" as="geometry">
            <Array as="points">
              <mxPoint x="453" y="266" />
            </Array>
          </mxGeometry>
        </mxCell>
        <mxCell id="muWI-FWQP0e6MkIebZbC-53" value="购车前准备" style="whiteSpace=wrap;strokeWidth=2;verticalAlign=top;" vertex="1" parent="1">
          <mxGeometry x="235" y="20" width="258" height="409" as="geometry" />
        </mxCell>
        <mxCell id="muWI-FWQP0e6MkIebZbC-54" value="4S店试驾与咨询" style="whiteSpace=wrap;strokeWidth=2;" vertex="1" parent="muWI-FWQP0e6MkIebZbC-53">
          <mxGeometry x="51" y="46" width="172" height="54" as="geometry" />
        </mxCell>
        <mxCell id="muWI-FWQP0e6MkIebZbC-55" value="申请购车指标" style="whiteSpace=wrap;strokeWidth=2;" vertex="1" parent="muWI-FWQP0e6MkIebZbC-53">
          <mxGeometry x="59" y="175" width="156" height="54" as="geometry" />
        </mxCell>
        <mxCell id="muWI-FWQP0e6MkIebZbC-56" value="获取新能源车指标" style="whiteSpace=wrap;strokeWidth=2;" vertex="1" parent="muWI-FWQP0e6MkIebZbC-53">
          <mxGeometry x="43" y="326" width="188" height="54" as="geometry" />
        </mxCell>
        <mxCell id="muWI-FWQP0e6MkIebZbC-57" value="" style="curved=1;startArrow=none;endArrow=block;exitX=0.5;exitY=0.99;entryX=0.5;entryY=-0.01;rounded=0;" edge="1" parent="muWI-FWQP0e6MkIebZbC-53" source="muWI-FWQP0e6MkIebZbC-54" target="muWI-FWQP0e6MkIebZbC-55">
          <mxGeometry relative="1" as="geometry">
            <Array as="points" />
          </mxGeometry>
        </mxCell>
        <mxCell id="muWI-FWQP0e6MkIebZbC-58" value="官网提交车架号" style="curved=1;startArrow=none;endArrow=block;exitX=0.5;exitY=0.99;entryX=0.5;entryY=0;rounded=0;" edge="1" parent="muWI-FWQP0e6MkIebZbC-53" source="muWI-FWQP0e6MkIebZbC-55" target="muWI-FWQP0e6MkIebZbC-56">
          <mxGeometry relative="1" as="geometry">
            <Array as="points" />
          </mxGeometry>
        </mxCell>
        <mxCell id="muWI-FWQP0e6MkIebZbC-59" value="上路行驶" style="whiteSpace=wrap;strokeWidth=2;" vertex="1" parent="1">
          <mxGeometry x="302" y="3359" width="124" height="54" as="geometry" />
        </mxCell>
        <mxCell id="muWI-FWQP0e6MkIebZbC-60" value="" style="curved=1;startArrow=none;endArrow=block;exitX=0.5;exitY=1;entryX=0.5;entryY=0;rounded=0;" edge="1" parent="1" source="muWI-FWQP0e6MkIebZbC-53" target="muWI-FWQP0e6MkIebZbC-43">
          <mxGeometry relative="1" as="geometry">
            <Array as="points" />
          </mxGeometry>
        </mxCell>
        <mxCell id="muWI-FWQP0e6MkIebZbC-61" value="" style="curved=1;startArrow=none;endArrow=block;exitX=0.5;exitY=1;entryX=0.5;entryY=0;rounded=0;" edge="1" parent="1" source="muWI-FWQP0e6MkIebZbC-43" target="muWI-FWQP0e6MkIebZbC-37">
          <mxGeometry relative="1" as="geometry">
            <Array as="points" />
          </mxGeometry>
        </mxCell>
        <mxCell id="muWI-FWQP0e6MkIebZbC-62" value="" style="curved=1;startArrow=none;endArrow=block;exitX=0.5;exitY=1;entryX=0.5;entryY=0;rounded=0;" edge="1" parent="1" source="muWI-FWQP0e6MkIebZbC-37" target="muWI-FWQP0e6MkIebZbC-27">
          <mxGeometry relative="1" as="geometry">
            <Array as="points" />
          </mxGeometry>
        </mxCell>
        <mxCell id="muWI-FWQP0e6MkIebZbC-63" value="" style="curved=1;startArrow=none;endArrow=block;exitX=0.5;exitY=1;entryX=0.5;entryY=0;rounded=0;" edge="1" parent="1" source="muWI-FWQP0e6MkIebZbC-27" target="muWI-FWQP0e6MkIebZbC-21">
          <mxGeometry relative="1" as="geometry">
            <Array as="points" />
          </mxGeometry>
        </mxCell>
        <mxCell id="muWI-FWQP0e6MkIebZbC-64" value="" style="curved=1;startArrow=none;endArrow=block;exitX=0.5;exitY=1;entryX=0.5;entryY=0;rounded=0;" edge="1" parent="1" source="muWI-FWQP0e6MkIebZbC-21" target="muWI-FWQP0e6MkIebZbC-15">
          <mxGeometry relative="1" as="geometry">
            <Array as="points" />
          </mxGeometry>
        </mxCell>
        <mxCell id="muWI-FWQP0e6MkIebZbC-65" value="" style="curved=1;startArrow=none;endArrow=block;exitX=0.5;exitY=1;entryX=0.5;entryY=0;rounded=0;" edge="1" parent="1" source="muWI-FWQP0e6MkIebZbC-15" target="muWI-FWQP0e6MkIebZbC-1">
          <mxGeometry relative="1" as="geometry">
            <Array as="points" />
          </mxGeometry>
        </mxCell>
        <mxCell id="muWI-FWQP0e6MkIebZbC-66" value="" style="curved=1;startArrow=none;endArrow=block;exitX=0.5;exitY=1;entryX=0.5;entryY=0.01;rounded=0;" edge="1" parent="1" source="muWI-FWQP0e6MkIebZbC-1" target="muWI-FWQP0e6MkIebZbC-59">
          <mxGeometry relative="1" as="geometry">
            <Array as="points" />
          </mxGeometry>
        </mxCell>
      </root>
    </mxGraphModel>
  </diagram>
</mxfile>
